<?xml version="1.0" encoding="iso-8859-1"?>
<!-- Generator: Adobe Illustrator 17.1.0, SVG Export Plug-In . SVG Version: 6.00 Build 0)  -->
<!DOCTYPE svg PUBLIC "-//W3C//DTD SVG 1.1//EN" "http://www.w3.org/Graphics/SVG/1.1/DTD/svg11.dtd">
<svg version="1.1" id="Capa_1" xmlns="http://www.w3.org/2000/svg" xmlns:xlink="http://www.w3.org/1999/xlink" x="0px" y="0px"
	 viewBox="0 0 288.393 288.393" style="fill:#50c878;" xml:space="preserve">
<g>
	<path d="M246.479,51.888l-2.466-4.319c-15.313-26.819-45.3-43.537-84.273-47.073L154.196,0v54.801l43.652,25.148L246.479,51.888z"
		/>
	<polygon points="187.196,97.969 143.697,72.817 100.196,97.969 100.196,189.316 143.697,214.467 187.196,189.316 	"/>
	<path d="M254.392,79.31l-1.015-7.438l-45.181,26.093v95.117l44.671,25.781l1.117-7.198c0.814-5.177,1.212-10.593,1.212-16.096
		V92.824C255.196,88.23,254.961,83.684,254.392,79.31z"/>
	<path d="M43.979,239.239l2.75,4.391c15.575,24.867,44.279,40.553,81.171,44.166l5.297,0.537v-55.849l-38.793-22.507L43.979,239.239
		z"/>
	<path d="M154.196,232.484v55.908l5.544-0.495c37.831-3.433,67.331-19.401,82.981-44.966l2.7-4.373l-50.84-29.345L154.196,232.484z"
		/>
	<path d="M133.196,54.801V0.06l-5.297,0.537C89.877,4.32,60.626,20.75,45.365,46.858l-2.489,4.338l48.248,27.99L133.196,54.801z"/>
	<path d="M79.196,96.438L35.548,71.082l-1.2,7.358c-0.647,4.654-1.152,9.493-1.152,14.384v102.744c0,5.811,0.74,11.516,1.648,16.955
		l1.12,7.117l43.232-25.033V96.438z"/>
</g>
<g>
</g>
<g>
</g>
<g>
</g>
<g>
</g>
<g>
</g>
<g>
</g>
<g>
</g>
<g>
</g>
<g>
</g>
<g>
</g>
<g>
</g>
<g>
</g>
<g>
</g>
<g>
</g>
<g>
</g>
</svg>
