<?xml version="1.0" encoding="iso-8859-1"?>
<!-- Generator: Adobe Illustrator 17.1.0, SVG Export Plug-In . SVG Version: 6.00 Build 0)  -->
<!DOCTYPE svg PUBLIC "-//W3C//DTD SVG 1.1//EN" "http://www.w3.org/Graphics/SVG/1.1/DTD/svg11.dtd">
<svg version="1.1" id="Capa_1" xmlns="http://www.w3.org/2000/svg" xmlns:xlink="http://www.w3.org/1999/xlink" x="0px" y="0px"
	 viewBox="0 0 298 298" style="fill:#ffd700;" xml:space="preserve">
<g>
	<path d="M47.761,62.543l34.698,17.828C83.393,80.856,84.564,81,85.68,81c0.001,0,0.002,0,0.002,0c1.232,0,2.416-0.193,3.424-0.774
		l44.471-25.582c2.009-1.164,3.423-3.449,3.423-5.771V6.341C137,3.032,134.183,0,130.874,0H50.349C47.04,0,44,3.032,44,6.341v50.303
		C44,59.061,45.616,61.432,47.761,62.543z"/>
	<path d="M198,193.819v-89.64c0-2.323-1.281-4.666-3.296-5.83l-43.971-25.406c-1.984-1.143-4.716-1.146-6.71,0.003L99.693,98.351
		C97.681,99.514,96,101.856,96,104.18v89.64c0,2.328,1.692,4.672,3.704,5.83l44.174,25.407c0.991,0.571,2.239,0.873,3.446,0.873
		c1.207,0,2.412-0.302,3.408-0.876l43.947-25.401C196.695,198.491,198,196.148,198,193.819z"/>
	<path d="M248.639,85.998c-0.911,0-1.755,0.229-2.59,0.661l-23.398,12.098c-2.146,1.111-3.651,3.483-3.651,5.9v89.617
		c0,2.417,1.544,4.788,3.69,5.899l23.382,12.094c0.836,0.435,1.787,0.664,2.702,0.664c1.636,0,3.026-0.717,4.068-1.967
		c0.842-1.01,1.159-2.313,1.159-3.673V91.639C254,88.476,251.734,85.998,248.639,85.998z"/>
	<path d="M248.317,0h-84.377C160.632,0,158,3.032,158,6.341v42.532c0,2.321,1.321,4.663,3.335,5.83l44.389,25.637
		c1.007,0.58,2.182,0.887,3.415,0.887c1.116,0,2.197-0.257,3.126-0.739l38.306-19.94c2.146-1.111,3.427-3.482,3.427-5.899V6.341
		C254,3.032,251.626,0,248.317,0z"/>
	<path d="M250.572,238.383l-39.238-20.381c-1.969-1.02-4.6-0.955-6.514,0.149L161.31,243.3c-2.009,1.164-3.31,3.506-3.31,5.827
		v42.532c0,3.309,2.632,6.341,5.941,6.341h84.377c3.309,0,5.683-3.032,5.683-6.341v-47.377
		C254,241.865,252.717,239.494,250.572,238.383z"/>
	<path d="M133.572,243.297l-43.583-25.145c-1.917-1.107-4.602-1.17-6.572-0.15l-35.653,18.387c-2.142,1.114-3.763,3.484-3.763,5.897
		v49.373c0,3.309,3.04,6.341,6.349,6.341h80.525c3.309,0,6.126-3.032,6.126-6.341v-42.532
		C137,246.801,135.584,244.458,133.572,243.297z"/>
	<path d="M49.693,210.935c0.912,0,1.922-0.229,2.757-0.661l19.223-10.101c2.146-1.111,3.327-3.482,3.327-5.899v-89.617
		c0-2.417-1.138-4.788-3.282-5.9l-19.334-10.1c-0.834-0.433-1.855-0.661-2.767-0.661c-3.095,0-5.617,2.478-5.617,5.641v111.658
		C44,208.456,46.598,210.934,49.693,210.935z"/>
</g>
<g>
</g>
<g>
</g>
<g>
</g>
<g>
</g>
<g>
</g>
<g>
</g>
<g>
</g>
<g>
</g>
<g>
</g>
<g>
</g>
<g>
</g>
<g>
</g>
<g>
</g>
<g>
</g>
<g>
</g>
</svg>
