<?xml version="1.0" encoding="iso-8859-1"?>
<!-- Generator: Adobe Illustrator 17.1.0, SVG Export Plug-In . SVG Version: 6.00 Build 0)  -->
<!DOCTYPE svg PUBLIC "-//W3C//DTD SVG 1.1//EN" "http://www.w3.org/Graphics/SVG/1.1/DTD/svg11.dtd">
<svg version="1.1" id="Capa_1" xmlns="http://www.w3.org/2000/svg" xmlns:xlink="http://www.w3.org/1999/xlink" x="0px" y="0px"
	 viewBox="0 0 297.29 297.29" style="fill:#e0115f;" xml:space="preserve">
<g>
	<path d="M62.172,140.643c1.865,0,3.924-1.087,5.242-2.407l68.064-68.497c1.319-1.318,1.857-3.494,1.857-5.36V7.779
		c0-3.093-2.014-5.517-4.986-5.517c-1.453,0-2.696,0.6-3.784,1.688L1.669,130.926c-1.64,1.636-2.097,4.151-1.257,6.184
		c0.841,2.034,2.842,3.533,5.159,3.533H62.172z"/>
	<path d="M71.416,163.779c-1.32-1.316-3.376-2.136-5.239-2.136H10.04c-2.315,0-4.276,1.232-5.118,3.263
		c-0.842,2.032-0.348,4.296,1.29,5.933l122.512,122.504c1.088,1.089,2.487,1.685,3.941,1.685c1.855,0,3.223-0.956,4.186-2.553
		c0.524-0.868,0.486-1.895,0.486-2.968v-56.137c0-1.865-0.538-3.908-1.857-5.227L71.416,163.779z"/>
	<path d="M208.036,148.876c0-1.604-0.624-3.11-1.757-4.242l-53.366-53.368c-1.133-1.133-2.64-1.756-4.243-1.756
		s-3.11,0.623-4.242,1.756L91.06,144.633c-1.133,1.133-1.756,2.64-1.756,4.243s0.623,3.11,1.756,4.242l53.366,53.367
		c1.133,1.133,2.64,1.757,4.243,1.757s3.11-0.624,4.242-1.757l53.367-53.366C207.412,151.986,208.036,150.479,208.036,148.876z"/>
	<path d="M287.299,161.643h-56.137c-1.865,0-3.924,0.822-5.242,2.141l-64.393,64.359c-1.319,1.318-2.191,3.362-2.191,5.227v56.138
		c0,3.093,2.514,5.136,5.485,5.136c0,0-0.074,0-0.073,0c1.456,0,2.82-0.411,3.904-1.499l122.493-122.416
		c1.637-1.637,2.122-3.838,1.28-5.87C291.585,162.828,289.615,161.643,287.299,161.643z"/>
	<path d="M295.596,130.931L168.622,3.956c-1.089-1.092-2.509-1.692-3.965-1.692c-2.973,0-5.32,2.423-5.32,5.516v56.602
		c0,1.865,0.872,3.924,2.191,5.242l68.391,68.619c1.32,1.316,3.386,2.402,5.248,2.402h56.601c2.316,0,4.276-1.498,5.118-3.529
		C297.728,135.082,297.234,132.568,295.596,130.931z"/>
</g>
<g>
</g>
<g>
</g>
<g>
</g>
<g>
</g>
<g>
</g>
<g>
</g>
<g>
</g>
<g>
</g>
<g>
</g>
<g>
</g>
<g>
</g>
<g>
</g>
<g>
</g>
<g>
</g>
<g>
</g>
</svg>
