<?xml version="1.0" encoding="iso-8859-1"?>
<!-- Generator: Adobe Illustrator 17.1.0, SVG Export Plug-In . SVG Version: 6.00 Build 0)  -->
<!DOCTYPE svg PUBLIC "-//W3C//DTD SVG 1.1//EN" "http://www.w3.org/Graphics/SVG/1.1/DTD/svg11.dtd">
<svg version="1.1" id="Capa_1" xmlns="http://www.w3.org/2000/svg" xmlns:xlink="http://www.w3.org/1999/xlink" x="0px" y="0px"
	 viewBox="0 0 292.221 292.221" style="fill:#0f52ba;" xml:space="preserve">
<g>
	<path d="M178.748,142.775l-27.796-49.05c-1.027-1.811-2.837-2.891-4.842-2.891s-3.814,1.08-4.843,2.894l-27.798,49.051
		c-1.126,1.992-1.126,4.67,0.003,6.666l27.796,49.05c1.027,1.811,2.837,2.891,4.842,2.891s3.814-1.08,4.843-2.894l27.794-49.044
		C179.879,147.451,179.879,144.77,178.748,142.775z"/>
	<path d="M235.091,138.11l-0.323-5.444c-3.763-61.702-33.74-116.48-71.277-130.153L156.777,0v60.722l43.706,77.389H235.091z"/>
	<path d="M156.777,231.5v60.721l6.714-2.444c17.434-6.351,34.109-22.167,46.952-44.535c13.209-23.006,21.501-50.928,23.977-80.682
		l0.452-5.449h-37.104L156.777,231.5z"/>
	<path d="M57.348,159.11l0.451,5.449c2.477,29.754,10.768,57.659,23.977,80.665c12.843,22.368,29.187,38.193,46.62,44.544
		l6.381,2.453V231.5l-40.325-72.39H57.348z"/>
	<path d="M134.777,60.722V0l-6.382,2.444C90.858,16.119,61.048,70.966,57.288,132.667l-0.158,5.443h34.608L134.777,60.722z"/>
</g>
<g>
</g>
<g>
</g>
<g>
</g>
<g>
</g>
<g>
</g>
<g>
</g>
<g>
</g>
<g>
</g>
<g>
</g>
<g>
</g>
<g>
</g>
<g>
</g>
<g>
</g>
<g>
</g>
<g>
</g>
</svg>
